<svg width="36" height="36" viewBox="0 0 36 36" fill="none" xmlns="http://www.w3.org/2000/svg">
<path d="M31.7549 3.08994C30.6797 2.90474 29.5909 2.80941 28.4999 2.80494C24.7774 2.80189 21.1326 3.8693 17.9999 5.87994C14.8591 3.8957 11.2149 2.85448 7.49988 2.87994C6.40885 2.88441 5.32009 2.97974 4.24488 3.16494C3.89269 3.22566 3.57375 3.41013 3.3455 3.68513C3.11725 3.96013 2.99469 4.30759 2.99988 4.66494V22.6649C2.99667 22.8853 3.04207 23.1037 3.13286 23.3046C3.22364 23.5055 3.35758 23.6838 3.52514 23.8271C3.6927 23.9703 3.88977 24.0748 4.10232 24.1332C4.31486 24.1916 4.53767 24.2024 4.75488 24.1649C6.90441 23.7928 9.10668 23.8545 11.232 24.3466C13.3573 24.8386 15.3626 25.751 17.1299 27.0299L17.3099 27.1349H17.4749C17.6412 27.2043 17.8197 27.2399 17.9999 27.2399C18.1801 27.2399 18.3585 27.2043 18.5249 27.1349H18.6899L18.8699 27.0299C20.6248 25.7224 22.6244 24.7804 24.7501 24.26C26.8758 23.7395 29.0844 23.6511 31.2449 23.9999C31.4621 24.0374 31.6849 24.0266 31.8974 23.9682C32.11 23.9098 32.3071 23.8053 32.4746 23.6621C32.6422 23.5188 32.7761 23.3405 32.8669 23.1396C32.9577 22.9387 33.0031 22.7203 32.9999 22.4999V4.49994C32.9843 4.15817 32.8523 3.832 32.6258 3.57554C32.3994 3.31909 32.0921 3.14774 31.7549 3.08994ZM16.4999 23.0249C13.7247 21.565 10.6357 20.803 7.49988 20.8049C7.00488 20.8049 6.50988 20.8049 5.99988 20.8049V5.80494C6.49947 5.77615 7.0003 5.77615 7.49988 5.80494C10.7 5.8014 13.8302 6.74047 16.4999 8.50494V23.0249ZM29.9999 20.8649C29.4899 20.8649 28.9949 20.8649 28.4999 20.8649C25.3641 20.863 22.2751 21.625 19.4999 23.0849V8.50494C22.1696 6.74047 25.2998 5.8014 28.4999 5.80494C28.9995 5.77615 29.5003 5.77615 29.9999 5.80494V20.8649ZM31.7549 27.0899C30.6797 26.9047 29.5909 26.8094 28.4999 26.8049C24.7774 26.8019 21.1326 27.8693 17.9999 29.8799C14.8672 27.8693 11.2223 26.8019 7.49988 26.8049C6.40885 26.8094 5.32009 26.9047 4.24488 27.0899C4.04962 27.1209 3.86242 27.1902 3.69403 27.2938C3.52564 27.3974 3.37938 27.5332 3.26368 27.6936C3.14798 27.8539 3.06511 28.0355 3.01984 28.2279C2.97457 28.4204 2.96778 28.6199 2.99988 28.8149C3.07611 29.2045 3.30362 29.5479 3.63257 29.77C3.96152 29.9921 4.36509 30.0748 4.75488 29.9999C6.90441 29.6278 9.10668 29.6895 11.232 30.1816C13.3573 30.6736 15.3626 31.586 17.1299 32.8649C17.3839 33.0458 17.688 33.143 17.9999 33.143C18.3117 33.143 18.6158 33.0458 18.8699 32.8649C20.6371 31.586 22.6425 30.6736 24.7678 30.1816C26.8931 29.6895 29.0954 29.6278 31.2449 29.9999C31.6347 30.0748 32.0382 29.9921 32.3672 29.77C32.6961 29.5479 32.9237 29.2045 32.9999 28.8149C33.032 28.6199 33.0252 28.4204 32.9799 28.2279C32.9347 28.0355 32.8518 27.8539 32.7361 27.6936C32.6204 27.5332 32.4741 27.3974 32.3057 27.2938C32.1373 27.1902 31.9501 27.1209 31.7549 27.0899V27.0899Z" fill="#B4984E"/>
</svg>
