<svg width="36" height="36" viewBox="0 0 36 36" fill="none" xmlns="http://www.w3.org/2000/svg">
<path d="M16.5 3C13.5333 3 10.6332 3.87973 8.16645 5.52796C5.69972 7.17618 3.77713 9.51886 2.64181 12.2597C1.5065 15.0006 1.20945 18.0166 1.78823 20.9264C2.36701 23.8361 3.79562 26.5088 5.8934 28.6066C7.99119 30.7044 10.6639 32.133 13.5737 32.7118C16.4834 33.2906 19.4994 32.9935 22.2403 31.8582C24.9811 30.7229 27.3238 28.8003 28.972 26.3336C30.6203 23.8668 31.5 20.9667 31.5 18C31.5 16.0302 31.112 14.0796 30.3582 12.2597C29.6044 10.4399 28.4995 8.78628 27.1066 7.3934C25.7137 6.00052 24.0601 4.89563 22.2403 4.14181C20.4204 3.38799 18.4698 3 16.5 3ZM16.5 30C14.1266 30 11.8066 29.2962 9.83316 27.9776C7.85977 26.6591 6.3217 24.7849 5.41345 22.5922C4.5052 20.3995 4.26756 17.9867 4.73058 15.6589C5.19361 13.3311 6.33649 11.1929 8.01472 9.51472C9.69296 7.83649 11.8312 6.6936 14.1589 6.23058C16.4867 5.76755 18.8995 6.00519 21.0922 6.91345C23.2849 7.8217 25.1591 9.35977 26.4776 11.3332C27.7962 13.3065 28.5 15.6266 28.5 18C28.5 21.1826 27.2357 24.2348 24.9853 26.4853C22.7349 28.7357 19.6826 30 16.5 30ZM16.5 9C16.1022 9 15.7207 9.15804 15.4393 9.43934C15.158 9.72064 15 10.1022 15 10.5V17.13L11.85 18.945C11.561 19.1087 11.3346 19.3638 11.2062 19.6701C11.0778 19.9764 11.0546 20.3166 11.1404 20.6375C11.2262 20.9584 11.4161 21.2417 11.6802 21.443C11.9444 21.6443 12.2679 21.7523 12.6 21.75C12.8628 21.7518 13.1214 21.6846 13.35 21.555L17.25 19.305L17.385 19.17L17.625 18.975C17.6837 18.9007 17.734 18.8203 17.775 18.735C17.8239 18.6545 17.8641 18.569 17.895 18.48C17.9358 18.3846 17.9611 18.2834 17.97 18.18L18 18V10.5C18 10.1022 17.842 9.72064 17.5607 9.43934C17.2794 9.15804 16.8978 9 16.5 9Z" fill="#B4984E"/>
</svg>
