<svg width="36" height="36" viewBox="0 0 36 36" fill="none" xmlns="http://www.w3.org/2000/svg">
<path d="M10.5 12H31.5C32.4 12 33 11.4 33 10.5C33 9.59997 32.4 8.99997 31.5 8.99997H10.5C9.59997 8.99997 8.99997 9.59997 8.99997 10.5C8.99997 11.4 9.59997 12 10.5 12ZM31.5 16.5H10.5C9.59997 16.5 8.99997 17.1 8.99997 18C8.99997 18.9 9.59997 19.5 10.5 19.5H31.5C32.4 19.5 33 18.9 33 18C33 17.1 32.4 16.5 31.5 16.5ZM31.5 24H10.5C9.59997 24 8.99997 24.6 8.99997 25.5C8.99997 26.4 9.59997 27 10.5 27H31.5C32.4 27 33 26.4 33 25.5C33 24.6 32.4 24 31.5 24ZM5.54997 9.44997C5.39997 9.29997 5.24997 9.14997 5.09997 9.14997C4.49997 8.84997 3.89997 8.99997 3.44997 9.44997C3.29997 9.59997 3.14997 9.74997 3.14997 9.89997C2.99997 10.35 2.99997 10.65 3.14997 11.1C3.29997 11.25 3.29997 11.4 3.44997 11.55C3.59997 11.7 3.74997 11.85 3.89997 11.85C4.04997 12 4.34997 12 4.49997 12C4.94997 12 5.24997 11.85 5.54997 11.55C5.69997 11.4 5.84997 11.25 5.84997 11.1C5.99997 10.65 5.99997 10.35 5.84997 9.89997C5.84997 9.74997 5.69997 9.59997 5.54997 9.44997ZM5.54997 16.95C5.09997 16.5 4.49997 16.35 3.89997 16.65C3.74997 16.8 3.59997 16.8 3.44997 16.95C3.29997 17.1 3.14997 17.25 3.14997 17.4C2.99997 17.7 2.99997 18.15 3.14997 18.6C3.29997 18.75 3.29997 18.9 3.44997 19.05C3.59997 19.2 3.74997 19.35 3.89997 19.35C4.04997 19.5 4.34997 19.5 4.49997 19.5C4.64997 19.5 4.94997 19.5 5.09997 19.35C5.24997 19.2 5.39997 19.2 5.54997 19.05C5.69997 18.9 5.84997 18.75 5.84997 18.6C5.99997 18.3 5.99997 17.85 5.84997 17.4C5.84997 17.25 5.69997 17.1 5.54997 16.95ZM5.54997 24.45C5.39997 24.3 5.24997 24.15 5.09997 24.15C4.79997 24 4.34997 24 3.89997 24.15C3.74997 24.15 3.59997 24.3 3.44997 24.45C3.29997 24.6 3.14997 24.75 3.14997 24.9C2.84997 25.5 2.99997 26.1 3.44997 26.55C3.59997 26.7 3.74997 26.85 3.89997 26.85C4.04997 27 4.34997 27 4.49997 27C4.64997 27 4.94997 27 5.09997 26.85C5.24997 26.7 5.39997 26.7 5.54997 26.55C5.99997 26.1 6.14997 25.5 5.84997 24.9C5.84997 24.75 5.69997 24.6 5.54997 24.45Z" fill="#B4984E"/>
</svg>
