<?xml version="1.0" encoding="UTF-8"?>
<svg xmlns="http://www.w3.org/2000/svg" xmlns:xlink="http://www.w3.org/1999/xlink" width="299pt" height="127pt" viewBox="0 0 299 127" version="1.1">
<defs>
<clipPath id="clip1">
  <path d="M 47 50.355469 L 82 50.355469 L 82 119.667969 L 47 119.667969 Z M 47 50.355469 "/>
</clipPath>
<clipPath id="clip2">
  <path d="M 72.9375 101.097656 C 65.683594 113.117188 47.71875 119.667969 47.71875 119.667969 C 66.949219 118.519531 81.121094 109.652344 81.121094 83.289062 L 81.121094 50.496094 C 78.28125 89.957031 78.351562 92.085938 72.914062 101.097656 "/>
</clipPath>
<linearGradient id="linear0" gradientUnits="userSpaceOnUse" x1="-175.97" y1="-178.83" x2="-175" y2="-178.83" gradientTransform="matrix(0.000000000000004357,71.273013,-71.123444,0.000000000000004363,-12653.721992,12592.874989)">
<stop offset="0" style="stop-color:rgb(10.588235%,32.54902%,14.117647%);stop-opacity:1;"/>
<stop offset="1" style="stop-color:rgb(17.647059%,65.882353%,21.176471%);stop-opacity:1;"/>
</linearGradient>
<linearGradient id="linear1" gradientUnits="userSpaceOnUse" x1="-175.97" y1="-178.83" x2="-175" y2="-178.83" gradientTransform="matrix(0.000000000000004357,71.273013,-71.123444,0.000000000000004363,-12653.817427,12592.89889)">
<stop offset="0" style="stop-color:rgb(10.588235%,32.54902%,14.117647%);stop-opacity:1;"/>
<stop offset="1" style="stop-color:rgb(17.647059%,65.882353%,21.176471%);stop-opacity:1;"/>
</linearGradient>
<clipPath id="clip3">
  <path d="M 10 50.355469 L 44 50.355469 L 44 119.667969 L 10 119.667969 Z M 10 50.355469 "/>
</clipPath>
<clipPath id="clip4">
  <path d="M 10.472656 50.832031 L 10.472656 83.171875 C 10.472656 105.277344 20.804688 118.328125 43.566406 119.523438 C 43.566406 119.523438 26.03125 118.472656 17.488281 98.179688 C 11.929688 85.035156 10.472656 50.355469 10.472656 50.355469 Z M 10.472656 50.832031 "/>
</clipPath>
<linearGradient id="linear2" gradientUnits="userSpaceOnUse" x1="-175.97" y1="-178.86" x2="-175" y2="-178.86" gradientTransform="matrix(0.000000000000004357,71.273013,-71.123444,0.000000000000004363,-12692.254149,12592.22966)">
<stop offset="0" style="stop-color:rgb(60%,76.078431%,11.372549%);stop-opacity:1;"/>
<stop offset="0.36" style="stop-color:rgb(60%,76.078431%,11.372549%);stop-opacity:1;"/>
<stop offset="0.47" style="stop-color:rgb(58.431373%,74.117647%,11.372549%);stop-opacity:1;"/>
<stop offset="0.59" style="stop-color:rgb(54.509804%,69.019608%,11.372549%);stop-opacity:1;"/>
<stop offset="0.71" style="stop-color:rgb(47.45098%,60.392157%,10.980392%);stop-opacity:1;"/>
<stop offset="0.84" style="stop-color:rgb(37.254902%,47.843137%,10.980392%);stop-opacity:1;"/>
<stop offset="0.97" style="stop-color:rgb(25.098039%,32.54902%,10.588235%);stop-opacity:1;"/>
<stop offset="1" style="stop-color:rgb(21.568627%,28.235294%,10.588235%);stop-opacity:1;"/>
</linearGradient>
</defs>
<g id="surface1">
<path style=" stroke:none;fill-rule:nonzero;fill:rgb(11.372549%,11.372549%,10.588235%);fill-opacity:1;" d="M 129.578125 97.511719 C 128.664062 101.945312 125.972656 105.804688 122.132812 108.195312 C 118.546875 110.375 114.398438 111.457031 110.203125 111.300781 C 107.386719 111.339844 104.582031 110.878906 101.925781 109.941406 C 97.238281 108.179688 93.605469 104.378906 92.046875 99.613281 C 91.347656 96.648438 91.105469 93.59375 91.332031 90.554688 L 91.332031 58.957031 L 98.109375 58.957031 L 98.109375 89.625 C 98.035156 91.601562 98.109375 93.582031 98.324219 95.550781 C 98.621094 98.191406 99.789062 100.652344 101.640625 102.554688 C 102.859375 103.671875 104.320312 104.488281 105.910156 104.945312 C 107.34375 105.300781 108.820312 105.472656 110.300781 105.445312 C 112.972656 105.53125 115.613281 104.824219 117.886719 103.414062 C 122.921875 100.164062 123.0625 94.667969 123.0625 89.410156 L 123.0625 65.386719 L 127.527344 58.957031 L 129.910156 58.957031 L 129.910156 91.582031 C 129.960938 93.570312 129.816406 95.554688 129.480469 97.511719 "/>
<path style=" stroke:none;fill-rule:nonzero;fill:rgb(11.372549%,11.372549%,10.588235%);fill-opacity:1;" d="M 172 110.105469 L 144.058594 68.496094 L 144.726562 110.105469 L 138.382812 110.105469 L 138.382812 58.957031 L 144.824219 58.957031 L 172.285156 99.878906 L 172 58.957031 L 178.105469 58.957031 L 178.105469 110.105469 Z M 172 110.105469 "/>
<path style=" stroke:none;fill-rule:nonzero;fill:rgb(11.372549%,11.372549%,10.588235%);fill-opacity:1;" d="M 185.695312 58.957031 L 192.542969 58.957031 L 192.542969 110.105469 L 185.695312 110.105469 Z M 185.695312 58.957031 "/>
<path style=" stroke:none;fill-rule:nonzero;fill:rgb(11.372549%,11.372549%,10.588235%);fill-opacity:1;" d="M 246.773438 95.550781 C 244.003906 102.539062 238.222656 107.890625 231.050781 110.105469 C 228.40625 110.878906 225.667969 111.265625 222.914062 111.253906 C 216.695312 111.507812 210.628906 109.300781 206.023438 105.113281 C 202.632812 101.933594 198.027344 95.550781 198.027344 84.4375 C 198.027344 68.542969 207.574219 57.621094 223.773438 57.621094 C 226.660156 57.621094 236.25 57.835938 242.527344 65.195312 C 244.496094 67.574219 246.011719 70.296875 246.988281 73.226562 L 240.140625 74.589844 C 239.558594 72.898438 238.753906 71.292969 237.753906 69.808594 C 234.441406 65.351562 229.148438 62.8125 223.605469 63.023438 C 221.054688 63.027344 218.527344 63.523438 216.160156 64.480469 C 205.496094 69.046875 205.425781 81.210938 205.425781 84.054688 C 205.425781 96.363281 211.269531 102.148438 216.257812 104.226562 C 218.625 105.128906 221.144531 105.574219 223.675781 105.542969 C 225.484375 105.601562 227.292969 105.398438 229.046875 104.945312 C 233.128906 103.699219 236.558594 100.890625 238.589844 97.128906 C 239.617188 95.074219 240.316406 92.875 240.664062 90.605469 L 248.039062 91.488281 C 247.757812 92.871094 247.34375 94.226562 246.796875 95.527344 "/>
<path style=" stroke:none;fill-rule:nonzero;fill:rgb(11.372549%,11.372549%,10.588235%);fill-opacity:1;" d="M 270.296875 67.347656 L 262.449219 88.597656 L 277.671875 88.597656 Z M 285.304688 110.105469 L 279.746094 94.5 L 260.324219 94.5 L 254.621094 110.105469 L 247.464844 110.105469 L 266.863281 59.054688 L 274.019531 59.054688 L 292.4375 110.105469 Z M 285.304688 110.105469 "/>
<path style=" stroke:none;fill-rule:nonzero;fill:rgb(11.372549%,11.372549%,10.588235%);fill-opacity:1;" d="M 119.558594 67.851562 L 118.890625 67.851562 L 118.890625 57.523438 L 126.738281 57.523438 Z M 119.558594 67.851562 "/>
<path style=" stroke:none;fill-rule:nonzero;fill:rgb(18.039216%,65.882353%,21.176471%);fill-opacity:1;" d="M 47.71875 70.886719 L 47.71875 119.667969 C 66.949219 118.519531 81.121094 109.652344 81.121094 83.289062 L 81.121094 50.496094 C 72.9375 62.449219 62.726562 69.617188 47.71875 70.886719 "/>
<path style=" stroke:none;fill-rule:nonzero;fill:rgb(60%,76.470588%,10.980392%);fill-opacity:1;" d="M 43.6875 119.667969 L 43.6875 50.355469 L 10.570312 50.355469 L 10.570312 83.148438 C 10.570312 105.328125 20.660156 118.328125 43.421875 119.523438 Z M 43.6875 119.667969 "/>
<g clip-path="url(#clip1)" clip-rule="nonzero">
<g clip-path="url(#clip2)" clip-rule="nonzero">
<path style=" stroke:none;fill-rule:nonzero;fill:url(#linear0);" d="M 47.71875 50.496094 L 81.121094 50.496094 L 81.121094 119.667969 L 47.71875 119.667969 Z M 47.71875 50.496094 "/>
<path style=" stroke:none;fill-rule:nonzero;fill:url(#linear1);" d="M 47.71875 50.496094 L 81.121094 50.496094 L 81.121094 119.667969 L 47.71875 119.667969 Z M 47.71875 50.496094 "/>
</g>
</g>
<g clip-path="url(#clip3)" clip-rule="nonzero">
<g clip-path="url(#clip4)" clip-rule="nonzero">
<path style=" stroke:none;fill-rule:nonzero;fill:url(#linear2);" d="M 10.472656 50.355469 L 43.589844 50.355469 L 43.589844 119.429688 L 10.472656 119.429688 Z M 10.472656 50.355469 "/>
</g>
</g>
<path style=" stroke:none;fill-rule:nonzero;fill:rgb(18.039216%,65.882353%,21.176471%);fill-opacity:1;" d="M 16.4375 20.238281 L 16.4375 25.210938 L 27.652344 25.210938 L 27.652344 29.75 L 16.4375 29.75 L 16.4375 39.3125 L 10.570312 39.3125 L 10.570312 15.746094 L 28.628906 15.746094 L 28.628906 20.238281 Z M 16.4375 20.238281 "/>
<path style=" stroke:none;fill-rule:nonzero;fill:rgb(18.039216%,65.882353%,21.176471%);fill-opacity:1;" d="M 56.496094 39.289062 L 55.351562 35.535156 L 46.691406 35.535156 L 45.523438 39.289062 L 39.273438 39.289062 L 47.980469 15.746094 L 54.113281 15.746094 L 62.773438 39.289062 Z M 50.960938 21.339844 L 48.050781 31.234375 L 54.015625 31.234375 Z M 50.960938 21.339844 "/>
<path style=" stroke:none;fill-rule:nonzero;fill:rgb(18.039216%,65.882353%,21.176471%);fill-opacity:1;" d="M 94.195312 36.015625 C 92.011719 38.472656 88.890625 39.878906 85.605469 39.886719 C 83.964844 39.882812 82.339844 39.542969 80.835938 38.882812 C 74.628906 36.085938 74.34375 29.320312 74.34375 27.386719 C 74.300781 24.335938 75.3125 21.363281 77.207031 18.972656 C 79.261719 16.363281 82.410156 14.863281 85.726562 14.910156 C 88.882812 14.875 91.898438 16.207031 94.003906 18.566406 C 94.621094 19.308594 95.164062 20.109375 95.625 20.957031 L 91.023438 23.347656 C 90.804688 22.882812 90.542969 22.441406 90.234375 22.03125 C 89.230469 20.636719 87.609375 19.816406 85.890625 19.832031 C 84.570312 19.828125 83.296875 20.332031 82.335938 21.242188 C 80.777344 22.875 79.964844 25.082031 80.09375 27.335938 C 80.09375 27.886719 80.09375 28.414062 80.09375 28.9375 C 80.230469 31.21875 81.515625 33.273438 83.507812 34.386719 C 84.234375 34.808594 85.054688 35.039062 85.890625 35.058594 C 88.121094 34.992188 90.109375 33.640625 90.996094 31.59375 L 95.625 33.980469 C 94.933594 35.035156 94.433594 35.726562 94.097656 36.132812 "/>
<path style=" stroke:none;fill-rule:nonzero;fill:rgb(18.039216%,65.882353%,21.176471%);fill-opacity:1;" d="M 128.050781 33.957031 C 126.09375 39.457031 119.890625 39.8125 118.507812 39.8125 C 115.707031 39.851562 112.996094 38.847656 110.894531 36.992188 C 109.003906 34.746094 108.136719 31.808594 108.511719 28.890625 L 108.511719 15.746094 L 114.523438 15.746094 L 114.523438 30.398438 C 114.523438 32.5 114.691406 33.3125 115.621094 34.054688 C 116.554688 34.667969 117.652344 34.976562 118.769531 34.9375 C 119.816406 35.042969 120.859375 34.734375 121.679688 34.078125 C 122.589844 33.074219 123.003906 31.714844 122.800781 30.375 L 122.800781 15.746094 L 128.695312 15.746094 L 128.695312 28.84375 C 128.777344 30.554688 128.566406 32.269531 128.074219 33.910156 "/>
<path style=" stroke:none;fill-rule:nonzero;fill:rgb(18.039216%,65.882353%,21.176471%);fill-opacity:1;" d="M 143.152344 39.289062 L 143.152344 15.746094 L 149.023438 15.746094 L 149.023438 34.316406 L 158.207031 34.316406 L 158.207031 39.289062 Z M 143.152344 39.289062 "/>
<path style=" stroke:none;fill-rule:nonzero;fill:rgb(18.039216%,65.882353%,21.176471%);fill-opacity:1;" d="M 189.726562 35.847656 C 188.304688 37.398438 186.4375 38.46875 184.382812 38.90625 C 183.144531 39.1875 181.878906 39.316406 180.613281 39.289062 L 171.402344 39.289062 L 171.402344 15.746094 L 180.945312 15.746094 C 183.738281 15.765625 186.453125 16.652344 188.722656 18.277344 C 189.46875 18.871094 190.097656 19.589844 190.585938 20.40625 C 191.835938 22.476562 192.453125 24.871094 192.351562 27.289062 C 192.53125 30.371094 191.570312 33.40625 189.65625 35.824219 M 185.21875 22.628906 C 184.589844 21.875 183.761719 21.320312 182.832031 21.027344 C 181.785156 20.738281 180.695312 20.625 179.609375 20.691406 L 177.222656 20.691406 L 177.222656 34.53125 L 179.011719 34.53125 C 180.855469 34.691406 182.699219 34.265625 184.285156 33.3125 C 185.898438 31.839844 186.695312 29.675781 186.433594 27.503906 C 186.554688 25.808594 186.09375 24.121094 185.121094 22.726562 "/>
<path style=" stroke:none;fill-rule:nonzero;fill:rgb(18.039216%,65.882353%,21.176471%);fill-opacity:1;" d="M 220.789062 39.289062 L 219.621094 35.535156 L 210.960938 35.535156 L 209.816406 39.289062 L 203.539062 39.289062 L 212.34375 15.746094 L 218.476562 15.746094 L 227.113281 39.289062 Z M 215.230469 21.339844 L 212.34375 31.234375 L 218.285156 31.234375 Z M 215.230469 21.339844 "/>
<path style=" stroke:none;fill-rule:nonzero;fill:rgb(18.039216%,65.882353%,21.176471%);fill-opacity:1;" d="M 257.867188 35.847656 C 256.445312 37.398438 254.578125 38.46875 252.523438 38.90625 C 251.292969 39.1875 250.035156 39.316406 248.777344 39.289062 L 239.519531 39.289062 L 239.519531 15.746094 L 249.0625 15.746094 C 251.855469 15.765625 254.570312 16.652344 256.839844 18.277344 C 257.585938 18.871094 258.214844 19.589844 258.703125 20.40625 C 259.953125 22.476562 260.570312 24.871094 260.46875 27.289062 C 260.648438 30.371094 259.6875 33.40625 257.773438 35.824219 M 253.238281 22.605469 C 252.625 21.839844 251.792969 21.28125 250.851562 21.003906 C 249.804688 20.714844 248.714844 20.601562 247.632812 20.667969 L 245.246094 20.667969 L 245.246094 34.507812 L 247.035156 34.507812 C 248.878906 34.667969 250.722656 34.242188 252.308594 33.289062 C 253.917969 31.8125 254.71875 29.652344 254.457031 27.480469 C 254.578125 25.78125 254.105469 24.089844 253.121094 22.699219 "/>
<path style=" stroke:none;fill-rule:nonzero;fill:rgb(18.039216%,65.882353%,21.176471%);fill-opacity:1;" d="M 273.996094 39.289062 L 273.996094 15.746094 L 291.363281 15.746094 L 291.363281 20.261719 L 279.839844 20.261719 L 279.839844 24.566406 L 290.601562 24.566406 L 290.601562 29.035156 L 279.839844 29.035156 L 279.839844 34.652344 L 292.4375 34.652344 L 292.4375 39.289062 Z M 273.996094 39.289062 "/>
</g>
</svg>
