<svg width="30" height="28" viewBox="0 0 30 28" fill="none" xmlns="http://www.w3.org/2000/svg">
<path d="M21.25 10.6984C21.0158 10.4811 20.699 10.3591 20.3688 10.3591C20.0385 10.3591 19.7217 10.4811 19.4875 10.6984L15 14.8284L10.575 10.6984C10.3408 10.4811 10.024 10.3591 9.69375 10.3591C9.36352 10.3591 9.0467 10.4811 8.8125 10.6984C8.69534 10.8068 8.60235 10.9359 8.53889 11.078C8.47543 11.2202 8.44275 11.3727 8.44275 11.5267C8.44275 11.6807 8.47543 11.8332 8.53889 11.9754C8.60235 12.1176 8.69534 12.2466 8.8125 12.3551L14.1125 17.3017C14.2287 17.4111 14.367 17.4979 14.5193 17.5571C14.6716 17.6163 14.835 17.6468 15 17.6468C15.165 17.6468 15.3284 17.6163 15.4807 17.5571C15.633 17.4979 15.7713 17.4111 15.8875 17.3017L21.25 12.3551C21.3672 12.2466 21.4602 12.1176 21.5236 11.9754C21.5871 11.8332 21.6197 11.6807 21.6197 11.5267C21.6197 11.3727 21.5871 11.2202 21.5236 11.078C21.4602 10.9359 21.3672 10.8068 21.25 10.6984Z" fill="#B4984E"/>
</svg>
