<svg width="31" height="31" viewBox="0 0 31 31" fill="none" xmlns="http://www.w3.org/2000/svg">
<g clip-path="url(#clip0_111_369)">
<path d="M18.9375 12.6244C18.378 12.6241 17.8271 12.7625 17.3341 13.0272C17.2891 12.9087 17.2092 12.8067 17.1048 12.7348C17.0005 12.6628 16.8767 12.6243 16.75 12.6244H14.25C14.1679 12.6243 14.0866 12.6405 14.0108 12.6719C13.9349 12.7033 13.866 12.7493 13.808 12.8073C13.7499 12.8654 13.7039 12.9343 13.6725 13.0101C13.6411 13.086 13.625 13.1673 13.625 13.2494V20.7494C13.625 20.8315 13.6411 20.9128 13.6725 20.9886C13.7039 21.0645 13.7499 21.1334 13.808 21.1914C13.866 21.2495 13.9349 21.2955 14.0108 21.3269C14.0866 21.3583 14.1679 21.3744 14.25 21.3744H16.75C16.8321 21.3744 16.9134 21.3583 16.9892 21.3269C17.0651 21.2955 17.134 21.2495 17.1921 21.1914C17.2501 21.1334 17.2961 21.0645 17.3275 20.9886C17.3589 20.9128 17.3751 20.8315 17.375 20.7494V17.3119C17.375 17.1461 17.4409 16.9871 17.5581 16.8699C17.6753 16.7527 17.8343 16.6869 18 16.6869C18.1658 16.6869 18.3247 16.7527 18.442 16.8699C18.5592 16.9871 18.625 17.1461 18.625 17.3119V20.7494C18.625 20.8315 18.6411 20.9128 18.6725 20.9886C18.7039 21.0645 18.7499 21.1334 18.808 21.1914C18.866 21.2495 18.9349 21.2955 19.0108 21.3269C19.0866 21.3583 19.1679 21.3744 19.25 21.3744H21.75C21.8321 21.3744 21.9134 21.3583 21.9892 21.3269C22.0651 21.2955 22.134 21.2495 22.1921 21.1914C22.2501 21.1334 22.2961 21.0645 22.3275 20.9886C22.3589 20.9128 22.3751 20.8315 22.375 20.7494V16.0619C22.3739 15.1505 22.0114 14.2769 21.3669 13.6325C20.7225 12.988 19.8488 12.6255 18.9375 12.6244V12.6244ZM21.125 20.1244H19.875V17.3119C19.875 16.8146 19.6775 16.3377 19.3258 15.9861C18.9742 15.6344 18.4973 15.4369 18 15.4369C17.5027 15.4369 17.0258 15.6344 16.6742 15.9861C16.3226 16.3377 16.125 16.8146 16.125 17.3119V20.1244H14.875V13.8744H16.125V14.3138C16.1251 14.4433 16.1654 14.5696 16.2403 14.6752C16.3152 14.7809 16.4211 14.8606 16.5433 14.9035C16.6655 14.9464 16.798 14.9503 16.9225 14.9146C17.047 14.8789 17.1573 14.8055 17.2383 14.7045C17.5188 14.3482 17.9035 14.0885 18.3388 13.9615C18.774 13.8345 19.238 13.8466 19.6661 13.9961C20.0941 14.1456 20.4648 14.425 20.7264 14.7953C20.9879 15.1657 21.1273 15.6085 21.125 16.0619V20.1244ZM12.375 12.6244H9.87501C9.79292 12.6243 9.71163 12.6405 9.63578 12.6719C9.55993 12.7033 9.49101 12.7493 9.43297 12.8073C9.37492 12.8654 9.32888 12.9343 9.29749 13.0101C9.2661 13.086 9.24997 13.1673 9.25001 13.2494V20.7494C9.24996 20.8315 9.2661 20.9128 9.29749 20.9886C9.32888 21.0645 9.37492 21.1334 9.43296 21.1914C9.49101 21.2495 9.55993 21.2955 9.63578 21.3269C9.71163 21.3583 9.79292 21.3744 9.87501 21.3744H12.375C12.4571 21.3744 12.5384 21.3583 12.6142 21.3269C12.6901 21.2955 12.759 21.2495 12.8171 21.1914C12.8751 21.1334 12.9211 21.0645 12.9525 20.9886C12.9839 20.9128 13.0001 20.8315 13 20.7494V13.2494C13.0001 13.1673 12.9839 13.086 12.9525 13.0101C12.9211 12.9343 12.8751 12.8654 12.8171 12.8073C12.759 12.7493 12.6901 12.7033 12.6142 12.6719C12.5384 12.6405 12.4571 12.6243 12.375 12.6244V12.6244ZM11.75 20.1244H10.5V13.8744H11.75V20.1244ZM11.1342 7.96375C10.8606 7.94738 10.5866 7.98682 10.3288 8.07966C10.071 8.1725 9.83481 8.31681 9.63452 8.50381C9.43424 8.69081 9.27408 8.9166 9.1638 9.16744C9.05351 9.41828 8.9954 9.68893 8.993 9.96294C8.99059 10.2369 9.04395 10.5086 9.14982 10.7613C9.25568 11.014 9.41185 11.2426 9.60882 11.4331C9.8058 11.6236 10.0395 11.772 10.2956 11.8694C10.5517 11.9667 10.825 12.011 11.0988 11.9994H11.1165C11.3907 12.0157 11.6654 11.9759 11.9237 11.8824C12.1821 11.789 12.4187 11.6438 12.619 11.4558C12.8194 11.2678 12.9793 11.041 13.089 10.7891C13.1987 10.5372 13.2559 10.2656 13.2571 9.99092C13.2584 9.71619 13.2035 9.4441 13.096 9.19127C12.9885 8.93845 12.8306 8.7102 12.6319 8.52047C12.4332 8.33074 12.1979 8.18352 11.9404 8.0878C11.6829 7.99208 11.4085 7.94987 11.1342 7.96375H11.1342ZM11.1165 10.7494H11.0988C10.9907 10.7625 10.881 10.7524 10.7772 10.7196C10.6733 10.6869 10.5777 10.6324 10.4967 10.5597C10.4156 10.487 10.3511 10.3978 10.3073 10.2981C10.2636 10.1983 10.2417 10.0904 10.2431 9.98157C10.2431 9.51526 10.5928 9.21375 11.1342 9.21375C11.2434 9.19919 11.3544 9.2082 11.4598 9.24018C11.5652 9.27215 11.6625 9.32634 11.7453 9.39909C11.828 9.47185 11.8941 9.56149 11.9393 9.66196C11.9844 9.76244 12.0075 9.87142 12.007 9.98157C12.007 10.4479 11.6572 10.7494 11.1165 10.7494Z" fill="#B4984E"/>
</g>
<circle cx="15.5" cy="15.5" r="14.75" stroke="#B4984E" stroke-width="1.5"/>
<defs>
<clipPath id="clip0_111_369">
<rect width="15" height="15" fill="white" transform="translate(8 7)"/>
</clipPath>
</defs>
</svg>
