<svg width="24" height="24" viewBox="0 0 24 24" fill="none" xmlns="http://www.w3.org/2000/svg">
<path d="M20.46 9.63006C20.3196 8.16898 19.8032 6.76915 18.9612 5.56688C18.1191 4.36462 16.9801 3.4009 15.655 2.76956C14.3299 2.13822 12.8639 1.86079 11.3997 1.96427C9.93555 2.06775 8.52314 2.54863 7.3 3.36006C6.2492 4.06271 5.36706 4.98936 4.71695 6.07346C4.06684 7.15755 3.6649 8.37217 3.54 9.63006C3.41749 10.8797 3.57468 12.141 4.00017 13.3223C4.42567 14.5037 5.1088 15.5755 6 16.4601L11.3 21.7701C11.393 21.8638 11.5036 21.9382 11.6254 21.989C11.7473 22.0397 11.878 22.0659 12.01 22.0659C12.142 22.0659 12.2727 22.0397 12.3946 21.989C12.5164 21.9382 12.627 21.8638 12.72 21.7701L18 16.4601C18.8912 15.5755 19.5743 14.5037 19.9998 13.3223C20.4253 12.141 20.5825 10.8797 20.46 9.63006ZM16.6 15.0501L12 19.6501L7.4 15.0501C6.72209 14.3721 6.20281 13.5524 5.87947 12.6498C5.55614 11.7473 5.43679 10.7843 5.53 9.83006C5.62382 8.86117 5.93177 7.92522 6.43157 7.08991C6.93138 6.25459 7.61056 5.54077 8.42 5.00006C9.48095 4.2953 10.7263 3.91936 12 3.91936C13.2737 3.91936 14.5191 4.2953 15.58 5.00006C16.387 5.53868 17.0647 6.24935 17.5644 7.081C18.064 7.91266 18.3733 8.84467 18.47 9.81007C18.5663 10.7675 18.4484 11.7343 18.125 12.6406C17.8016 13.5469 17.2807 14.3699 16.6 15.0501ZM12 6.00006C11.11 6.00006 10.24 6.26399 9.49994 6.75845C8.75992 7.25292 8.18314 7.95572 7.84255 8.77799C7.50195 9.60026 7.41284 10.5051 7.58647 11.378C7.7601 12.2509 8.18869 13.0527 8.81802 13.682C9.44736 14.3114 10.2492 14.74 11.1221 14.9136C11.995 15.0872 12.8998 14.9981 13.7221 14.6575C14.5443 14.3169 15.2471 13.7402 15.7416 13.0001C16.2361 12.2601 16.5 11.3901 16.5 10.5001C16.4974 9.3074 16.0224 8.16434 15.1791 7.321C14.3357 6.47766 13.1927 6.00271 12 6.00006ZM12 13.0001C11.5055 13.0001 11.0222 12.8534 10.6111 12.5787C10.2 12.304 9.87952 11.9136 9.6903 11.4568C9.50109 11 9.45158 10.4973 9.54804 10.0123C9.6445 9.52739 9.88261 9.08193 10.2322 8.7323C10.5819 8.38267 11.0273 8.14456 11.5123 8.0481C11.9972 7.95164 12.4999 8.00115 12.9567 8.19037C13.4135 8.37958 13.804 8.70002 14.0787 9.11114C14.3534 9.52226 14.5 10.0056 14.5 10.5001C14.5 11.1631 14.2366 11.799 13.7678 12.2678C13.2989 12.7367 12.663 13.0001 12 13.0001Z" fill="#B4984E"/>
</svg>
