<svg width="36" height="36" viewBox="0 0 36 36" fill="none" xmlns="http://www.w3.org/2000/svg">
<path d="M23.58 13.185L17.145 19.635L14.67 17.16C14.5355 17.003 14.3701 16.8754 14.184 16.7854C13.9979 16.6954 13.7952 16.6448 13.5886 16.6368C13.382 16.6288 13.176 16.6636 12.9835 16.739C12.791 16.8145 12.6162 16.9288 12.47 17.075C12.3238 17.2212 12.2095 17.396 12.1341 17.5885C12.0586 17.781 12.0238 17.987 12.0318 18.1936C12.0398 18.4002 12.0904 18.6029 12.1804 18.789C12.2705 18.9751 12.398 19.1405 12.555 19.275L16.08 22.815C16.2202 22.954 16.3864 23.064 16.5691 23.1387C16.7519 23.2133 16.9476 23.2511 17.145 23.25C17.5385 23.2483 17.9156 23.0921 18.195 22.815L25.695 15.315C25.8356 15.1756 25.9472 15.0097 26.0233 14.8269C26.0995 14.6441 26.1387 14.448 26.1387 14.25C26.1387 14.052 26.0995 13.8559 26.0233 13.6731C25.9472 13.4903 25.8356 13.3244 25.695 13.185C25.414 12.9056 25.0338 12.7488 24.6375 12.7488C24.2412 12.7488 23.8611 12.9056 23.58 13.185ZM19.5 3C16.5333 3 13.6332 3.87973 11.1665 5.52796C8.69972 7.17618 6.77713 9.51886 5.64181 12.2597C4.5065 15.0006 4.20945 18.0166 4.78823 20.9264C5.36701 23.8361 6.79562 26.5088 8.89341 28.6066C10.9912 30.7044 13.6639 32.133 16.5737 32.7118C19.4834 33.2906 22.4994 32.9935 25.2403 31.8582C27.9812 30.7229 30.3238 28.8003 31.9721 26.3336C33.6203 23.8668 34.5 20.9667 34.5 18C34.5 16.0302 34.112 14.0796 33.3582 12.2597C32.6044 10.4399 31.4995 8.78628 30.1066 7.3934C28.7137 6.00052 27.0601 4.89563 25.2403 4.14181C23.4204 3.38799 21.4698 3 19.5 3ZM19.5 30C17.1266 30 14.8066 29.2962 12.8332 27.9776C10.8598 26.6591 9.3217 24.7849 8.41345 22.5922C7.5052 20.3995 7.26756 17.9867 7.73058 15.6589C8.19361 13.3311 9.3365 11.1929 11.0147 9.51472C12.693 7.83649 14.8312 6.6936 17.1589 6.23058C19.4867 5.76755 21.8995 6.00519 24.0922 6.91345C26.2849 7.8217 28.1591 9.35977 29.4776 11.3332C30.7962 13.3065 31.5 15.6266 31.5 18C31.5 21.1826 30.2357 24.2348 27.9853 26.4853C25.7349 28.7357 22.6826 30 19.5 30Z" fill="#B4984E"/>
</svg>
