<svg width="24" height="24" viewBox="0 0 24 24" fill="none" xmlns="http://www.w3.org/2000/svg">
<path d="M7 23C6.45 23 5.97933 22.8043 5.588 22.413C5.196 22.021 5 21.55 5 21V3C5 2.45 5.196 1.979 5.588 1.587C5.97933 1.19567 6.45 1 7 1H17C17.55 1 18.021 1.19567 18.413 1.587C18.8043 1.979 19 2.45 19 3V21C19 21.55 18.8043 22.021 18.413 22.413C18.021 22.8043 17.55 23 17 23H7ZM7 18V21H17V18H7ZM12 20.5C12.2833 20.5 12.521 20.404 12.713 20.212C12.9043 20.0207 13 19.7833 13 19.5C13 19.2167 12.9043 18.9793 12.713 18.788C12.521 18.596 12.2833 18.5 12 18.5C11.7167 18.5 11.4793 18.596 11.288 18.788C11.096 18.9793 11 19.2167 11 19.5C11 19.7833 11.096 20.0207 11.288 20.212C11.4793 20.404 11.7167 20.5 12 20.5ZM7 16H17V6H7V16ZM7 4H17V3H7V4ZM7 18V21V18ZM7 4V3V4Z" fill="#CDA45E"/>
</svg>
