<svg width="232" height="36" viewBox="0 0 232 36" fill="none" xmlns="http://www.w3.org/2000/svg">
<path d="M23.8906 10.5283C23.8906 11.6221 23.4583 12.5439 22.5938 13.2939C21.7708 14.0023 20.8073 14.3564 19.7031 14.3564C18.5885 14.3564 17.6146 14.0023 16.7812 13.2939C15.9167 12.5439 15.4844 11.6221 15.4844 10.5283C15.4844 10.1637 15.526 9.85124 15.6094 9.59082C13.3802 9.61165 11.3542 10.7679 9.53125 13.0596C7.82292 15.2262 6.96875 17.4554 6.96875 19.7471C6.96875 24.0492 9.77604 26.2002 15.3906 26.2002H23.25C22.9271 27.8669 21.6615 28.7002 19.4531 28.7002H13.6875C10.0938 28.7002 7.17708 28.1794 4.9375 27.1377C1.86458 25.7002 0.34375 23.3617 0.375 20.1221C0.395833 18.3096 0.953125 16.4971 2.04688 14.6846C3.53646 12.2054 5.65104 10.2471 8.39062 8.80957C11.0469 7.41374 13.8698 6.71582 16.8594 6.71582H19.9844C20.9948 6.71582 21.8958 7.10124 22.6875 7.87207C23.4896 8.6429 23.8906 9.52832 23.8906 10.5283ZM43.8906 26.2002C43.6719 27.0648 43.1927 27.721 42.4531 28.1689C41.8698 28.5231 41.25 28.7002 40.5938 28.7002H34.0625C32.5312 28.7002 31.7656 28.2106 31.7656 27.2314C30.9531 28.2106 29.8542 28.7002 28.4688 28.7002H25.7188C24.875 28.7002 24.2188 28.4814 23.75 28.0439C23.3125 27.6377 23.0938 27.1012 23.0938 26.4346C23.0938 26.0596 23.1667 25.6742 23.3125 25.2783L25.9375 18.0752H31.6094L28.6875 26.2002H31.8594L34.7656 18.0752H40.375L37.5312 26.2002H43.8906ZM62.1406 26.2002C62.1406 26.9294 61.7396 27.5439 60.9375 28.0439C60.2292 28.4814 59.4896 28.7002 58.7188 28.7002H52.7344C51.151 28.7002 50.3594 28.0439 50.3594 26.7314C50.3594 26.3981 50.4271 26.0387 50.5625 25.6533L52.3281 20.5752H49L47.2656 25.0596C46.974 25.82 46.3438 26.2002 45.375 26.2002H43.7188L45.7656 20.5752C45.1198 20.4294 44.5938 20.1064 44.1875 19.6064C43.7917 19.096 43.5938 18.5127 43.5938 17.8564C43.5938 16.6585 44.151 15.7314 45.2656 15.0752C46.1927 14.5335 47.2969 14.2627 48.5781 14.2627H51.1094L49.7969 18.0752H58.4375L55.5938 26.2002H62.1406ZM81.0312 26.2002C80.9896 26.8981 80.5885 27.4919 79.8281 27.9814C79.0781 28.4606 78.2552 28.7002 77.3594 28.7002H65.4844C63.2031 28.7002 62.0625 28.0023 62.0625 26.6064C62.0625 26.4814 62.0729 26.346 62.0938 26.2002C62.1771 25.5752 62.5104 25.0908 63.0938 24.7471C63.5938 24.445 64.1667 24.2992 64.8125 24.3096C65.9375 24.3408 67.4635 24.9606 69.3906 26.1689C69.9427 25.4814 70.2188 24.7835 70.2188 24.0752C70.2188 23.721 69.9948 22.9137 69.5469 21.6533L67.7812 23.2627H64.6562L68.8125 19.4189C68.625 19.096 68.4948 18.8304 68.4219 18.6221C68.2865 18.2367 68.2135 17.7992 68.2031 17.3096L72.0469 13.2158C73.776 13.5075 74.6406 14.2939 74.6406 15.5752C74.6406 16.3252 74.4167 17.0179 73.9688 17.6533C74.3542 18.6742 74.7448 19.695 75.1406 20.7158C75.6198 22.0283 75.8594 23.0908 75.8594 23.9033C75.8594 24.7992 75.5052 25.5648 74.7969 26.2002H81.0312ZM107.594 18.0752C107.177 19.7419 105.927 20.5752 103.844 20.5752H94.0625C94.4062 20.8044 94.6875 21.2262 94.9062 21.8408C95.125 22.445 95.2135 22.971 95.1719 23.4189C95.026 25.1585 94.2604 26.5231 92.875 27.5127C91.5521 28.4606 89.8333 28.9398 87.7188 28.9502C85.2604 28.971 83.3698 28.4867 82.0469 27.4971C80.8698 26.6221 80.2812 25.471 80.2812 24.0439C80.2812 23.7627 80.3073 23.4814 80.3594 23.2002C80.6302 21.6273 81.4115 20.3929 82.7031 19.4971C84.0781 18.5492 85.9115 18.0752 88.2031 18.0752H107.594ZM90.5625 20.5752H86.9844L85.5781 24.5752C85.5052 24.7835 85.4688 24.9814 85.4688 25.1689C85.4688 26.0648 86.3021 26.5127 87.9688 26.5127C88.1667 26.5127 88.3385 26.5075 88.4844 26.4971L90.5625 20.5752ZM155.141 18.0752C154.609 19.7419 153.339 20.5752 151.328 20.5752H142.047L139.109 28.7002H133.516L136.453 20.5752H131.656C126.406 26.9085 121.276 30.0752 116.266 30.0752C114.807 30.0752 113.578 29.8044 112.578 29.2627C111.318 28.5752 110.688 27.5648 110.688 26.2314C110.688 25.096 111.156 23.9867 112.094 22.9033C113.604 21.1637 115.891 19.8773 118.953 19.0439C121.349 18.3981 123.995 18.0752 126.891 18.0752H129.922L139.391 6.71582H146.922L142.891 18.0752H155.141ZM140.578 9.30957L133.734 18.0752H137.219L140.578 9.30957ZM127.812 20.5752C123.906 20.5752 121.167 21.1377 119.594 22.2627C118.292 23.2002 117.641 24.195 117.641 25.2471C117.641 26.1429 118.109 26.5908 119.047 26.5908C120.339 26.5908 121.953 25.8617 123.891 24.4033C125.589 23.1429 126.896 21.8669 127.812 20.5752ZM148.719 0.543945L143.906 5.37207H141.578L144.422 0.543945H148.719ZM167.219 26.2002C166.958 27.1169 166.359 27.7939 165.422 28.2314C164.766 28.5439 164.062 28.7002 163.312 28.7002H160.047L157.844 35.1064H156.656C155.844 35.1064 155.125 34.8356 154.5 34.2939C153.833 33.721 153.5 32.9919 153.5 32.1064C153.5 31.7106 153.573 31.2992 153.719 30.8721L155.031 27.1064C153.906 28.3773 152.474 29.0127 150.734 29.0127C150.432 29.0127 150.115 28.9919 149.781 28.9502C148.833 28.8356 148.089 28.3825 147.547 27.5908C147.057 26.8617 146.812 25.9658 146.812 24.9033C146.812 24.2992 146.896 23.7002 147.062 23.1064C147.552 21.3564 148.594 20.0439 150.188 19.1689C151.51 18.4398 153.062 18.0752 154.844 18.0752H163.766L160.953 26.2002H167.219ZM157.234 20.5752H153.906L152.719 23.9346C152.625 24.2054 152.578 24.4554 152.578 24.6846C152.578 25.695 153.469 26.2002 155.25 26.2002L157.234 20.5752ZM187.984 26.2002C187.766 27.0648 187.286 27.721 186.547 28.1689C185.964 28.5231 185.344 28.7002 184.688 28.7002H178.156C176.625 28.7002 175.859 28.2106 175.859 27.2314C175.047 28.2106 173.948 28.7002 172.562 28.7002H169.812C168.969 28.7002 168.312 28.4814 167.844 28.0439C167.406 27.6377 167.188 27.1012 167.188 26.4346C167.188 26.0596 167.26 25.6742 167.406 25.2783L170.031 18.0752H175.703L172.781 26.2002H175.953L178.859 18.0752H184.469L181.625 26.2002H187.984ZM198.719 11.6689C198.719 12.7106 198.312 13.596 197.5 14.3252C196.698 15.0544 195.729 15.4189 194.594 15.4189C193.438 15.4189 192.453 15.0544 191.641 14.3252C190.839 13.596 190.438 12.7106 190.438 11.6689C190.438 10.6377 190.839 9.75749 191.641 9.02832C192.453 8.29915 193.438 7.93457 194.594 7.93457C195.729 7.93457 196.698 8.29915 197.5 9.02832C198.312 9.75749 198.719 10.6377 198.719 11.6689ZM199.844 26.2002C199.573 27.1169 199.01 27.7939 198.156 28.2314C197.542 28.5439 196.875 28.7002 196.156 28.7002H189.984C188.495 28.7002 187.75 28.0752 187.75 26.8252C187.75 26.471 187.823 26.0908 187.969 25.6846L190.688 18.0752H196.359L193.469 26.2002H199.844ZM211.938 26.2002C211.677 27.1169 211.078 27.7939 210.141 28.2314C209.484 28.5439 208.781 28.7002 208.031 28.7002H202.016C200.474 28.7002 199.703 28.1742 199.703 27.1221C199.703 26.8512 199.76 26.5439 199.875 26.2002L205.672 9.85645H211.203L205.375 26.2002H211.938ZM232 26.2002C231.5 27.8669 230.224 28.7002 228.172 28.7002H222.25C220.562 28.7002 219.719 28.1585 219.719 27.0752C218.583 28.3669 217.188 29.0127 215.531 29.0127C214.312 29.0127 213.323 28.6377 212.562 27.8877C211.802 27.1377 211.422 26.1585 211.422 24.9502C211.422 22.7731 212.255 21.0544 213.922 19.7939C215.432 18.6481 217.302 18.0752 219.531 18.0752H228.453L225.516 26.2002H232ZM221.922 20.5752H218.469L217.375 24.2158C217.312 24.445 217.281 24.6533 217.281 24.8408C217.281 25.7471 218.167 26.2002 219.938 26.2002L221.922 20.5752Z" fill="#B4984E"/>
</svg>
