<svg width="40" height="40" viewBox="0 0 40 40" fill="none" xmlns="http://www.w3.org/2000/svg">
<path d="M21.1833 13.8166C21.0248 13.6649 20.8379 13.5459 20.6333 13.4666C20.2276 13.2999 19.7724 13.2999 19.3667 13.4666C19.1621 13.5459 18.9752 13.6649 18.8167 13.8166L13.8167 18.8166C13.5028 19.1304 13.3265 19.5561 13.3265 19.9999C13.3265 20.4438 13.5028 20.8694 13.8167 21.1833C14.1305 21.4971 14.5562 21.6734 15 21.6734C15.4438 21.6734 15.8695 21.4971 16.1833 21.1833L18.3333 19.0166V24.9999C18.3333 25.4419 18.5089 25.8659 18.8215 26.1784C19.134 26.491 19.558 26.6666 20 26.6666C20.442 26.6666 20.8659 26.491 21.1785 26.1784C21.4911 25.8659 21.6667 25.4419 21.6667 24.9999V19.0166L23.8167 21.1833C23.9716 21.3395 24.1559 21.4635 24.359 21.5481C24.5621 21.6327 24.78 21.6763 25 21.6763C25.22 21.6763 25.4378 21.6327 25.6409 21.5481C25.844 21.4635 26.0284 21.3395 26.1833 21.1833C26.3395 21.0283 26.4635 20.844 26.5481 20.6409C26.6328 20.4378 26.6763 20.2199 26.6763 19.9999C26.6763 19.7799 26.6328 19.5621 26.5481 19.359C26.4635 19.1559 26.3395 18.9715 26.1833 18.8166L21.1833 13.8166ZM20 3.33325C16.7036 3.33325 13.4813 4.31073 10.7405 6.14209C7.99966 7.97345 5.86346 10.5764 4.60199 13.6219C3.34053 16.6673 3.01048 20.0184 3.65357 23.2514C4.29665 26.4844 5.884 29.4542 8.21487 31.785C10.5457 34.1159 13.5155 35.7033 16.7485 36.3463C19.9815 36.9894 23.3326 36.6594 26.378 35.3979C29.4235 34.1365 32.0265 32.0002 33.8578 29.2594C35.6892 26.5186 36.6667 23.2963 36.6667 19.9999C36.6667 17.8112 36.2356 15.644 35.398 13.6219C34.5604 11.5998 33.3327 9.76245 31.7851 8.21481C30.2375 6.66716 28.4001 5.4395 26.378 4.60193C24.356 3.76435 22.1887 3.33325 20 3.33325V3.33325ZM20 33.3333C17.3629 33.3333 14.785 32.5513 12.5924 31.0862C10.3997 29.6211 8.69076 27.5387 7.68159 25.1024C6.67243 22.666 6.40838 19.9851 6.92285 17.3987C7.43732 14.8123 8.7072 12.4365 10.5719 10.5718C12.4366 8.70713 14.8124 7.43725 17.3988 6.92278C19.9852 6.40831 22.6661 6.67236 25.1024 7.68153C27.5388 8.69069 29.6212 10.3997 31.0862 12.5923C32.5513 14.785 33.3333 17.3628 33.3333 19.9999C33.3333 23.5361 31.9286 26.9275 29.4281 29.428C26.9276 31.9285 23.5362 33.3333 20 33.3333V33.3333Z" fill="#B4984E"/>
</svg>
