<svg width="20" height="20" viewBox="0 0 20 20" fill="none" xmlns="http://www.w3.org/2000/svg">
<g clip-path="url(#clip0_310_227)">
<path d="M10.0127 0C4.50616 0 0.0234867 4.47881 0.0214865 9.98535C0.0204864 11.7455 0.481516 13.4639 1.3556 14.978L0 20.002L5.23293 18.7655C6.69207 19.5616 8.33467 19.9795 10.0068 19.9805H10.0107C15.5163 19.9805 19.997 15.5007 20 9.99512C20.002 7.32585 18.964 4.8162 17.0778 2.92802C15.1917 1.04084 12.685 0.0010001 10.0127 0ZM10.0107 2.0002C12.1469 2.0012 14.1545 2.83407 15.6636 4.34222C17.1728 5.85237 18.0018 7.85895 17.9998 9.99316C17.9978 14.3976 14.4152 17.9803 10.0088 17.9803C8.67566 17.9793 7.35512 17.6445 6.19201 17.0095L5.51812 16.6422L4.7739 16.818L2.80496 17.2829L3.28548 15.4976L3.50229 14.6967L3.08819 13.9779C2.39012 12.7698 2.02068 11.3885 2.02168 9.98535C2.02368 5.58292 5.60731 2.0002 10.0107 2.0002ZM6.47719 5.37552C6.31018 5.37552 6.04014 5.43803 5.81111 5.68805C5.58209 5.93708 4.93603 6.54022 4.93603 7.76834C4.93603 8.99646 5.83065 10.1836 5.95566 10.3506C6.07967 10.5166 7.6825 13.1165 10.2197 14.1166C12.328 14.9477 12.7561 14.7837 13.2142 14.7417C13.6722 14.7007 14.6919 14.1391 14.8999 13.556C15.1079 12.973 15.1084 12.4714 15.0464 12.3684C14.9844 12.2644 14.8179 12.2024 14.5678 12.0773C14.3188 11.9523 13.0916 11.3497 12.8626 11.2667C12.6336 11.1837 12.466 11.1417 12.3 11.3917C12.134 11.6418 11.6569 12.2024 11.5109 12.3684C11.3649 12.5354 11.2198 12.5579 10.9698 12.4329C10.7198 12.3068 9.91591 12.0426 8.96181 11.1925C8.21974 10.5314 7.71902 9.71579 7.573 9.46577C7.42799 9.21674 7.55933 9.07996 7.68434 8.95595C7.79635 8.84394 7.93241 8.66442 8.05743 8.51841C8.18144 8.37239 8.22444 8.26837 8.30745 8.10235C8.39046 7.93634 8.34797 7.78982 8.28596 7.66481C8.22396 7.5398 7.73838 6.30711 7.51636 5.81307C7.32934 5.39803 7.13182 5.38838 6.9538 5.38138C6.80879 5.37538 6.64321 5.37552 6.47719 5.37552Z" fill="#B4984E"/>
</g>
<defs>
<clipPath id="clip0_310_227">
<rect width="20" height="20" fill="white"/>
</clipPath>
</defs>
</svg>
