<svg width="40" height="40" viewBox="0 0 40 40" fill="none" xmlns="http://www.w3.org/2000/svg">
<path d="M19.6667 3C16.3703 3 13.148 3.97748 10.4072 5.80884C7.66635 7.6402 5.53015 10.2431 4.26868 13.2886C3.00722 16.334 2.67717 19.6851 3.32026 22.9181C3.96334 26.1511 5.55069 29.1209 7.88156 31.4517C10.2124 33.7826 13.1822 35.37 16.4152 36.013C19.6482 36.6561 22.9993 36.3262 26.0447 35.0647C29.0902 33.8033 31.6932 31.6669 33.5245 28.9261C35.3559 26.1853 36.3334 22.9631 36.3334 19.6667C36.3334 17.478 35.9023 15.3107 35.0647 13.2886C34.2271 11.2665 32.9994 9.4292 31.4518 7.88156C29.9042 6.33391 28.0668 5.10625 26.0447 4.26868C24.0227 3.4311 21.8554 3 19.6667 3ZM19.6667 33.0001C17.0296 33.0001 14.4517 32.2181 12.2591 30.753C10.0664 29.2879 8.35745 27.2054 7.34828 24.7691C6.33912 22.3327 6.07507 19.6519 6.58954 17.0655C7.10401 14.4791 8.37389 12.1033 10.2386 10.2386C12.1033 8.37388 14.4791 7.104 17.0655 6.58953C19.6519 6.07506 22.3328 6.33911 24.7691 7.34828C27.2055 8.35744 29.2879 10.0665 30.7529 12.2591C32.218 14.4518 33 17.0296 33 19.6667C33 23.2029 31.5953 26.5942 29.0948 29.0947C26.5943 31.5952 23.2029 33.0001 19.6667 33.0001Z" fill="#B4984E"/>
<path d="M19.5357 12C15.3914 12 12.0177 15.3708 12.0162 19.5151C12.0154 20.8399 12.3624 22.1331 13.0202 23.2727L12 27.0538L15.9384 26.1232C17.0366 26.7223 18.2728 27.0368 19.5313 27.0376H19.5342C23.6778 27.0376 27.05 23.666 27.0523 19.5225C27.0538 17.5135 26.2726 15.6247 24.853 14.2037C23.4335 12.7833 21.5469 12.0008 19.5357 12ZM19.5342 13.5054C21.142 13.5061 22.6529 14.133 23.7887 15.268C24.9245 16.4046 25.5484 17.9148 25.5469 19.521C25.5454 22.8358 22.8491 25.5322 19.5328 25.5322C18.5294 25.5315 17.5356 25.2795 16.6602 24.8016L16.153 24.5252L15.5929 24.6575L14.1111 25.0074L14.4727 23.6637L14.6359 23.061L14.3242 22.52C13.7988 21.6107 13.5208 20.5711 13.5215 19.5151C13.5231 16.2018 16.2201 13.5054 19.5342 13.5054ZM16.8748 16.0457C16.7491 16.0457 16.5459 16.0927 16.3735 16.2809C16.2012 16.4683 15.7149 16.9223 15.7149 17.8466C15.7149 18.7709 16.3882 19.6643 16.4823 19.79C16.5757 19.915 17.782 21.8717 19.6915 22.6244C21.2782 23.2499 21.6005 23.1264 21.9452 23.0948C22.2899 23.0639 23.0573 22.6413 23.2139 22.2025C23.3704 21.7636 23.3708 21.3862 23.3241 21.3086C23.2775 21.2304 23.1521 21.1837 22.964 21.0896C22.7765 20.9955 21.8529 20.542 21.6806 20.4795C21.5082 20.417 21.3821 20.3854 21.2572 20.5736C21.1322 20.7618 20.7732 21.1837 20.6633 21.3086C20.5534 21.4343 20.4442 21.4512 20.256 21.3571C20.0679 21.2623 19.4629 21.0634 18.7448 20.4236C18.1863 19.9261 17.8094 19.3122 17.6996 19.1241C17.5904 18.9367 17.6893 18.8337 17.7834 18.7404C17.8677 18.6561 17.9701 18.521 18.0641 18.4111C18.1575 18.3012 18.1898 18.2229 18.2523 18.0979C18.3148 17.973 18.2828 17.8627 18.2361 17.7686C18.1895 17.6746 17.824 16.7468 17.6569 16.375C17.5162 16.0626 17.3675 16.0554 17.2335 16.0501C17.1244 16.0456 16.9998 16.0457 16.8748 16.0457Z" fill="#B4984E"/>
</svg>
