<svg width="31" height="31" viewBox="0 0 31 31" fill="none" xmlns="http://www.w3.org/2000/svg">
<path d="M19.875 10.5H11.125C10.6277 10.5 10.1508 10.6975 9.79917 11.0492C9.44754 11.4008 9.25 11.8777 9.25 12.375V18.625C9.25 19.1223 9.44754 19.5992 9.79917 19.9508C10.1508 20.3025 10.6277 20.5 11.125 20.5H19.875C20.3723 20.5 20.8492 20.3025 21.2008 19.9508C21.5525 19.5992 21.75 19.1223 21.75 18.625V12.375C21.75 11.8777 21.5525 11.4008 21.2008 11.0492C20.8492 10.6975 20.3723 10.5 19.875 10.5V10.5ZM19.6188 11.75L15.9438 15.425C15.8856 15.4836 15.8165 15.5301 15.7404 15.5618C15.6642 15.5935 15.5825 15.6099 15.5 15.6099C15.4175 15.6099 15.3358 15.5935 15.2596 15.5618C15.1835 15.5301 15.1144 15.4836 15.0562 15.425L11.3812 11.75H19.6188ZM20.5 18.625C20.5 18.7908 20.4342 18.9497 20.3169 19.0669C20.1997 19.1842 20.0408 19.25 19.875 19.25H11.125C10.9592 19.25 10.8003 19.1842 10.6831 19.0669C10.5658 18.9497 10.5 18.7908 10.5 18.625V12.6312L14.175 16.3062C14.5266 16.6574 15.0031 16.8546 15.5 16.8546C15.9969 16.8546 16.4734 16.6574 16.825 16.3062L20.5 12.6312V18.625Z" fill="#B4984E"/>
<circle cx="15.5" cy="15.5" r="14.75" stroke="#B4984E" stroke-width="1.5"/>
</svg>
