<svg width="31" height="31" viewBox="0 0 31 31" fill="none" xmlns="http://www.w3.org/2000/svg">
<path d="M18.56 11.64C18.4018 11.64 18.2471 11.6869 18.1156 11.7748C17.984 11.8627 17.8815 11.9877 17.8209 12.1339C17.7604 12.28 17.7445 12.4409 17.7754 12.5961C17.8063 12.7513 17.8824 12.8938 17.9943 13.0057C18.1062 13.1176 18.2488 13.1938 18.4039 13.2246C18.5591 13.2555 18.72 13.2397 18.8662 13.1791C19.0123 13.1186 19.1373 13.016 19.2252 12.8845C19.3131 12.7529 19.36 12.5982 19.36 12.44C19.36 12.2278 19.2757 12.0244 19.1257 11.8743C18.9757 11.7243 18.7722 11.64 18.56 11.64ZM21.6267 13.2533C21.6137 12.7002 21.5101 12.1529 21.32 11.6333C21.1505 11.1888 20.8867 10.7862 20.5467 10.4533C20.2166 10.1116 19.8131 9.84946 19.3667 9.68668C18.8484 9.49078 18.3006 9.38482 17.7467 9.37334C17.04 9.33334 16.8133 9.33334 15 9.33334C13.1867 9.33334 12.96 9.33334 12.2533 9.37334C11.6994 9.38482 11.1516 9.49078 10.6333 9.68668C10.1878 9.85111 9.78463 10.1131 9.45334 10.4533C9.11163 10.7835 8.84946 11.187 8.68668 11.6333C8.49078 12.1516 8.38482 12.6994 8.37334 13.2533C8.33334 13.96 8.33334 14.1867 8.33334 16C8.33334 17.8133 8.33334 18.04 8.37334 18.7467C8.38482 19.3006 8.49078 19.8484 8.68668 20.3667C8.84946 20.8131 9.11163 21.2166 9.45334 21.5467C9.78463 21.887 10.1878 22.1489 10.6333 22.3133C11.1516 22.5092 11.6994 22.6152 12.2533 22.6267C12.96 22.6667 13.1867 22.6667 15 22.6667C16.8133 22.6667 17.04 22.6667 17.7467 22.6267C18.3006 22.6152 18.8484 22.5092 19.3667 22.3133C19.8131 22.1506 20.2166 21.8884 20.5467 21.5467C20.8882 21.2151 21.1522 20.8121 21.32 20.3667C21.5101 19.8471 21.6137 19.2998 21.6267 18.7467C21.6267 18.04 21.6667 17.8133 21.6667 16C21.6667 14.1867 21.6667 13.96 21.6267 13.2533ZM20.4267 18.6667C20.4218 19.0899 20.3452 19.5091 20.2 19.9067C20.0936 20.1968 19.9226 20.459 19.7 20.6733C19.4838 20.8937 19.2222 21.0643 18.9333 21.1733C18.5358 21.3185 18.1165 21.3952 17.6933 21.4C17.0267 21.4333 16.78 21.44 15.0267 21.44C13.2733 21.44 13.0267 21.44 12.36 21.4C11.9206 21.4082 11.4831 21.3406 11.0667 21.2C10.7905 21.0854 10.5409 20.9152 10.3333 20.7C10.1121 20.4858 9.94324 20.2235 9.84001 19.9333C9.67725 19.5301 9.58697 19.1013 9.57334 18.6667C9.57334 18 9.53334 17.7533 9.53334 16C9.53334 14.2467 9.53334 14 9.57334 13.3333C9.57633 12.9007 9.65531 12.472 9.80668 12.0667C9.92404 11.7853 10.1042 11.5344 10.3333 11.3333C10.5359 11.1041 10.7862 10.9221 11.0667 10.8C11.473 10.6534 11.9013 10.5767 12.3333 10.5733C13 10.5733 13.2467 10.5333 15 10.5333C16.7533 10.5333 17 10.5333 17.6667 10.5733C18.0899 10.5782 18.5091 10.6548 18.9067 10.8C19.2096 10.9124 19.4815 11.0952 19.7 11.3333C19.9185 11.5381 20.0892 11.7885 20.2 12.0667C20.3482 12.4726 20.4249 12.9012 20.4267 13.3333C20.46 14 20.4667 14.2467 20.4667 16C20.4667 17.7533 20.46 18 20.4267 18.6667ZM15 12.58C14.3239 12.5813 13.6633 12.783 13.1018 13.1596C12.5402 13.5362 12.1029 14.0708 11.8451 14.6958C11.5873 15.3209 11.5205 16.0083 11.6532 16.6713C11.7859 17.3343 12.1122 17.943 12.5907 18.4207C13.0693 18.8983 13.6787 19.2234 14.3419 19.3548C15.0051 19.4862 15.6925 19.4181 16.317 19.159C16.9415 18.9 17.4753 18.4616 17.8508 17.8994C18.2263 17.3371 18.4267 16.6761 18.4267 16C18.4276 15.5501 18.3395 15.1044 18.1675 14.6886C17.9955 14.2729 17.743 13.8952 17.4246 13.5774C17.1061 13.2595 16.728 13.0078 16.3119 12.8366C15.8958 12.6655 15.4499 12.5783 15 12.58ZM15 18.22C14.5609 18.22 14.1317 18.0898 13.7666 17.8459C13.4016 17.6019 13.117 17.2552 12.949 16.8496C12.781 16.4439 12.737 15.9975 12.8227 15.5669C12.9083 15.1363 13.1198 14.7407 13.4302 14.4302C13.7407 14.1198 14.1363 13.9083 14.5669 13.8227C14.9975 13.737 15.4439 13.781 15.8496 13.949C16.2552 14.117 16.6019 14.4016 16.8459 14.7666C17.0898 15.1317 17.22 15.5609 17.22 16C17.22 16.2915 17.1626 16.5802 17.051 16.8496C16.9395 17.1189 16.7759 17.3636 16.5698 17.5698C16.3636 17.7759 16.1189 17.9395 15.8496 18.051C15.5802 18.1626 15.2915 18.22 15 18.22Z" fill="#B4984E"/>
<circle cx="15.5" cy="15.5" r="14.75" stroke="#B4984E" stroke-width="1.5"/>
</svg>
