<svg width="31" height="31" viewBox="0 0 31 31" fill="none" xmlns="http://www.w3.org/2000/svg">
<path d="M22.3274 10.6335C22.3275 10.5157 22.2964 10.4001 22.2372 10.2982C22.1781 10.1964 22.093 10.1121 21.9906 10.0539C21.8883 9.99568 21.7723 9.96562 21.6545 9.96679C21.5368 9.96796 21.4215 10.0003 21.3203 10.0606C20.9301 10.2928 20.51 10.4707 20.0716 10.5892C19.4456 10.052 18.6472 9.7581 17.8223 9.7611C16.9173 9.76214 16.0482 10.1148 15.3984 10.7447C14.7486 11.3745 14.3691 12.2323 14.3399 13.1368C12.5559 12.8523 10.939 11.9211 9.7975 10.5208C9.72872 10.4374 9.64089 10.3717 9.54141 10.3293C9.44192 10.287 9.33371 10.2691 9.22589 10.2773C9.11813 10.2862 9.01415 10.3212 8.92295 10.3793C8.83175 10.4374 8.75606 10.5168 8.70245 10.6107C8.42746 11.0906 8.26953 11.6285 8.24148 12.1809C8.21342 12.7333 8.31604 13.2844 8.54099 13.7897L8.53969 13.791C8.43858 13.8533 8.35515 13.9405 8.29736 14.0442C8.23956 14.1479 8.20935 14.2647 8.20961 14.3835C8.20838 14.4814 8.21426 14.5793 8.22719 14.6764C8.29528 15.5153 8.66704 16.3005 9.27276 16.8848C9.23167 16.9631 9.20659 17.0487 9.19899 17.1368C9.19139 17.2249 9.20141 17.3136 9.22849 17.3978C9.49256 18.2205 10.0542 18.9152 10.8034 19.3457C10.0422 19.64 9.22031 19.7427 8.41013 19.6445C8.26017 19.6257 8.10828 19.6584 7.97936 19.7373C7.85044 19.8161 7.75214 19.9365 7.7006 20.0785C7.64906 20.2206 7.64733 20.376 7.6957 20.5192C7.74407 20.6623 7.83966 20.7848 7.96679 20.8665C9.36019 21.764 10.9826 22.2411 12.64 22.2409C14.5195 22.262 16.3533 21.6614 17.8561 20.5325C19.359 19.4036 20.4466 17.8097 20.9498 15.9987C21.1852 15.2098 21.3054 14.391 21.3066 13.5677C21.3066 13.5241 21.3066 13.4792 21.306 13.4343C21.654 13.0589 21.9237 12.6178 22.0991 12.1369C22.2745 11.6559 22.3521 11.1448 22.3274 10.6335V10.6335ZM20.123 12.7748C20.0129 12.905 19.9572 13.0726 19.9674 13.2429C19.9739 13.3529 19.9733 13.4635 19.9733 13.5677C19.9719 14.2634 19.8699 14.9553 19.6705 15.6218C19.2595 17.1627 18.3433 18.5211 17.0686 19.4795C15.7939 20.4379 14.2344 20.9407 12.64 20.9076C12.0672 20.9077 11.4965 20.8404 10.9395 20.707C11.6497 20.4781 12.3138 20.1253 12.901 19.6647C13.0092 19.5796 13.0883 19.463 13.1276 19.3311C13.1669 19.1992 13.1644 19.0583 13.1205 18.9279C13.0766 18.7974 12.9933 18.6838 12.8822 18.6025C12.7711 18.5212 12.6376 18.4763 12.5 18.474C11.9459 18.4654 11.4167 18.242 11.0241 17.8509C11.1237 17.832 11.2226 17.8086 11.3209 17.7806C11.4649 17.7396 11.591 17.6514 11.6787 17.53C11.7665 17.4087 11.8108 17.2614 11.8047 17.1118C11.7985 16.9622 11.7422 16.819 11.6447 16.7053C11.5473 16.5916 11.4144 16.514 11.2676 16.485C10.9459 16.4215 10.6432 16.2847 10.3831 16.0852C10.1229 15.8856 9.9123 15.6288 9.76755 15.3346C9.88804 15.3511 10.0093 15.3613 10.1308 15.3652C10.2752 15.3674 10.4166 15.3236 10.5344 15.2402C10.6523 15.1567 10.7405 15.038 10.7864 14.9011C10.8304 14.7629 10.8282 14.6142 10.78 14.4774C10.7318 14.3407 10.6404 14.2233 10.5195 14.1432C10.2263 13.9479 9.98607 13.6829 9.82041 13.3719C9.65475 13.0609 9.56881 12.7137 9.57029 12.3613C9.57029 12.3171 9.57159 12.2728 9.57419 12.2292C11.0684 13.6227 13.0064 14.4442 15.0469 14.5488C15.1499 14.5529 15.2524 14.5335 15.3468 14.4921C15.4412 14.4507 15.525 14.3884 15.5918 14.3099C15.6579 14.2307 15.7047 14.1371 15.7286 14.0367C15.7524 13.9363 15.7526 13.8317 15.7291 13.7311C15.691 13.5721 15.6715 13.4091 15.6712 13.2455C15.6718 12.6752 15.8986 12.1284 16.3019 11.7251C16.7052 11.3218 17.2519 11.095 17.8222 11.0944C18.1157 11.0936 18.4061 11.1537 18.6751 11.2708C18.9442 11.3879 19.186 11.5595 19.3854 11.7748C19.4623 11.8575 19.5591 11.9192 19.6665 11.9539C19.774 11.9887 19.8885 11.9954 19.9993 11.9733C20.2732 11.9201 20.5431 11.8483 20.8073 11.7585C20.6271 12.1272 20.3968 12.4691 20.123 12.7748V12.7748Z" fill="#B4984E"/>
<circle cx="15.5" cy="15.5" r="14.75" stroke="#B4984E" stroke-width="1.5"/>
</svg>
