<svg width="31" height="31" viewBox="0 0 31 31" fill="none" xmlns="http://www.w3.org/2000/svg">
<circle cx="15.5" cy="15.5" r="14.75" stroke="#B4984E" stroke-width="1.5"/>
<path d="M15.8402 10C12.6283 10 10.0137 12.6124 10.0125 15.8242C10.0119 16.8509 10.2809 17.8532 10.7907 18.7363L10 21.6667L13.0522 20.9455C13.9033 21.4098 14.8614 21.6536 15.8368 21.6541H15.839C19.0503 21.6541 21.6638 19.0412 21.6655 15.8299C21.6667 14.273 21.0613 12.8092 19.9611 11.7078C18.8609 10.6071 17.3988 10.0006 15.8402 10ZM15.839 11.1667C17.085 11.1673 18.256 11.653 19.1362 12.5327C20.0165 13.4135 20.5 14.5839 20.4989 15.8288C20.4977 18.3978 18.4081 20.4875 15.8379 20.4875C15.0603 20.4869 14.2901 20.2916 13.6117 19.9212L13.2186 19.707L12.7845 19.8096L11.6361 20.0807L11.9163 19.0394L12.0428 18.5723L11.8013 18.153C11.3941 17.4483 11.1786 16.6426 11.1792 15.8242C11.1804 13.2564 13.2706 11.1667 15.839 11.1667ZM13.778 13.1354C13.6806 13.1354 13.5231 13.1719 13.3895 13.3177C13.2559 13.463 12.8791 13.8148 12.8791 14.5311C12.8791 15.2474 13.4009 15.9399 13.4738 16.0373C13.5461 16.1341 14.481 17.6506 15.9609 18.2339C17.1906 18.7186 17.4404 18.623 17.7075 18.5985C17.9747 18.5746 18.5694 18.247 18.6908 17.9069C18.8121 17.5668 18.8124 17.2743 18.7762 17.2142C18.74 17.1535 18.6429 17.1174 18.4971 17.0444C18.3518 16.9715 17.636 16.62 17.5024 16.5716C17.3689 16.5232 17.2711 16.4987 17.1743 16.6445C17.0775 16.7904 16.7992 17.1174 16.714 17.2142C16.6289 17.3116 16.5443 17.3247 16.3984 17.2518C16.2526 17.1783 15.7837 17.0242 15.2272 16.5283C14.7944 16.1427 14.5023 15.667 14.4172 15.5212C14.3326 15.3759 14.4092 15.2961 14.4821 15.2238C14.5474 15.1585 14.6268 15.0538 14.6997 14.9686C14.772 14.8834 14.7971 14.8227 14.8455 14.7259C14.894 14.6291 14.8692 14.5436 14.833 14.4707C14.7968 14.3978 14.5136 13.6788 14.3841 13.3906C14.275 13.1485 14.1598 13.1429 14.056 13.1388C13.9714 13.1353 13.8748 13.1354 13.778 13.1354Z" fill="#B4984E"/>
</svg>
